<?xml version="1.0" encoding="utf-8"?>
<!-- Generator: Adobe Illustrator 23.0.1, SVG Export Plug-In . SVG Version: 6.00 Build 0)  -->
<svg version="1.1" id="Layer_1" xmlns="http://www.w3.org/2000/svg" xmlns:xlink="http://www.w3.org/1999/xlink" x="0px" y="0px"
	 viewBox="0 0 953 589" style="enable-background:new 0 0 953 589;" xml:space="preserve">
<style type="text/css">
	.st0{opacity:0.2;}
	.st1{fill:none;stroke:#A96FDC;fill-opacity="0.25"}
	<!-- .st1{fill:none;stroke:#dac2f0;} -->
	.st2{opacity:0.3;}
	.st3{opacity:0.4;}
	.st4{opacity:0.5;}
	.st5{opacity:0.6;}
	.st6{opacity:0.7;}
	.st7{opacity:0.8;}
	.st8{opacity:0.9;}
</style>
<g transform="translate(43 123)" class="st0">
	<path class="st1" d="M847.9,216.7l-61.6,61.4c-3.2-22-13.3-43.3-30.3-60.2L633.6,95.7l-0.6-0.6l-0.6-0.6
		c-12.1-12.1-18.8-28.1-18.8-45.2s6.7-33.1,18.8-45.2l1.2-1.2c12.5-12.5,28.9-18.7,45.3-18.7c16.4,0,32.8,6.2,45.3,18.7l123.7,123.4
		c12.1,12.1,18.8,28.1,18.8,45.2S860,204.6,847.9,216.7z M725.5,338.9l-1.2,1.2c-25,24.9-65.6,24.9-90.6,0l-61.5-61.4
		c22.7-3.3,43.8-13.7,60.3-30.3l1.2-1.2c16.6-16.5,27-37.5,30.3-60.2l61.5,61.4C750.4,273.4,750.4,314,725.5,338.9L725.5,338.9z
		 M234.4,340.1c-25,24.9-65.6,24.9-90.6,0l-1.2-1.2c-12.1-12.1-18.8-28.1-18.8-45.2s6.7-33.1,18.8-45.2l61.5-61.4
		c3.3,22.7,13.8,43.7,30.3,60.2l1.2,1.2c16.5,16.5,37.5,27,60.3,30.3L234.4,340.1L234.4,340.1z M111.9,217.9
		c-16.5,16.5-27,37.5-30.3,60.2l-61.5-61.4C8,204.6,1.3,188.6,1.3,171.5s6.7-33.1,18.8-45.2L143.8,2.9
		c12.5-12.5,28.9-18.7,45.3-18.7s32.8,6.2,45.3,18.7l1.2,1.2c12.1,12.1,18.8,28.1,18.8,45.2s-6.7,33.1-18.8,45.2l-0.6,0.6
		L111.9,217.9L111.9,217.9z M878.5,95.7L754.9-27.7c-41.9-41.8-110-41.8-151.9,0l-1.2,1.2c-20.3,20.2-31.5,47.1-31.5,75.8
		c0,28.6,11.2,55.5,31.5,75.8l0.6,0.6l0.6,0.6c12.1,12.1,18.8,28.1,18.8,45.2s-6.7,33.1-18.8,45.2l-1.2,1.2
		c-12.1,12.1-28.2,18.7-45.3,18.7s-33.2-6.6-45.3-18.7l-0.6-0.6l-0.6-0.6c-20.3-20.2-47.2-31.4-75.9-31.4s-55.6,11.1-75.9,31.4
		l-1.2,1.2c-12.1,12.1-28.2,18.7-45.3,18.7s-33.2-6.6-45.3-18.7l-1.2-1.2c-12.1-12.1-18.8-28.1-18.8-45.2s6.7-33.1,18.8-45.2
		l0.6-0.6l0.6-0.6c20.3-20.2,31.5-47.1,31.5-75.8c0-28.6-11.2-55.5-31.5-75.8l-1.2-1.2c-41.9-41.8-110-41.8-151.9,0L-10.5,95.7
		C-30.8,116-42,142.9-42,171.5s11.2,55.5,31.5,75.8l123,122.8l0.6,0.6c41.9,41.8,110,41.8,151.9,0l123.7-123.4
		c25-24.9,65.6-24.9,90.6,0L603,370.7c20.9,20.9,48.4,31.3,75.9,31.3s55-10.4,75.9-31.3l123.7-123.4c20.3-20.2,31.5-47.1,31.5-75.8
		C910,142.9,898.8,116,878.5,95.7L878.5,95.7z"/>
</g>
<g transform="rotate(2 -3025.833 1523.734)" class="st2">
	<path class="st1" d="M845.9,218.2l-61.6,61.4c-3.2-22-13.3-43.3-30.3-60.2L631.6,97.2l-0.6-0.6l-0.6-0.6
		c-12.1-12.1-18.8-28.1-18.8-45.2s6.7-33.1,18.8-45.2l1.2-1.2c12.5-12.5,28.9-18.7,45.3-18.7s32.8,6.2,45.3,18.7l123.7,123.4
		c12.1,12.1,18.8,28.1,18.8,45.2C864.7,190.1,858,206.1,845.9,218.2z M723.4,340.4l-1.2,1.2c-25,24.9-65.6,24.9-90.6,0l-61.5-61.4
		c22.7-3.3,43.8-13.7,60.3-30.3l1.2-1.2c16.6-16.5,27-37.5,30.3-60.2l61.5,61.4C748.4,274.9,748.4,315.5,723.4,340.4L723.4,340.4z
		 M232.3,341.6c-25,24.9-65.6,24.9-90.6,0l-1.2-1.2c-12.1-12.1-18.8-28.1-18.8-45.2s6.7-33.1,18.8-45.2l61.5-61.4
		c3.3,22.7,13.8,43.7,30.3,60.2l1.2,1.2c16.5,16.5,37.5,27,60.3,30.3L232.3,341.6L232.3,341.6z M109.9,219.4
		c-16.5,16.5-27,37.5-30.3,60.2L18,218.2C5.9,206.1-0.7,190.1-0.7,173s6.7-33.1,18.8-45.2L141.7,4.4c12.5-12.5,28.9-18.7,45.3-18.7
		c16.4,0,32.8,6.2,45.3,18.7l1.2,1.2c12.1,12.1,18.8,28.1,18.8,45.2s-6.7,33.1-18.8,45.2l-0.6,0.6L109.9,219.4L109.9,219.4z
		 M876.5,97.2L752.8-26.2c-41.9-41.8-110-41.8-151.9,0l-1.2,1.2c-20.3,20.2-31.5,47.1-31.5,75.8c0,28.6,11.2,55.5,31.4,75.8l0.6,0.6
		l0.6,0.6c12.1,12.1,18.8,28.1,18.8,45.2s-6.7,33.1-18.8,45.2l-1.2,1.2c-12.1,12.1-28.2,18.7-45.3,18.7s-33.2-6.6-45.3-18.7
		l-0.6-0.6l-0.6-0.6c-20.3-20.2-47.2-31.4-75.9-31.4c-28.7,0-55.6,11.2-75.9,31.4l-1.2,1.2c-12.1,12.1-28.2,18.7-45.3,18.7
		c-17.1,0-33.2-6.6-45.3-18.7l-1.2-1.2c-12.1-12.1-18.8-28.1-18.8-45.2s6.7-33.1,18.8-45.2l0.6-0.6l0.6-0.6
		c20.3-20.2,31.5-47.1,31.5-75.8c0-28.6-11.2-55.5-31.4-75.8l-1.2-1.2c-41.9-41.8-110-41.8-151.9,0L-12.6,97.2
		C-32.9,117.5-44,144.4-44,173s11.2,55.5,31.5,75.8l123,122.8l0.6,0.6c41.9,41.8,110,41.8,151.9,0l123.7-123.4
		c25-24.9,65.6-24.9,90.6,0L601,372.2c20.9,20.9,48.4,31.3,75.9,31.3c27.5,0,55-10.4,75.9-31.3l123.7-123.4
		c20.3-20.2,31.5-47.1,31.5-75.8C908,144.4,896.8,117.5,876.5,97.2L876.5,97.2z"/>
</g>
<g transform="rotate(4 -1263.63 907.68)" class="st3">
	<path class="st1" d="M843.9,219.8l-61.6,61.4c-3.2-22-13.3-43.3-30.3-60.2L629.6,98.8l-0.6-0.6l-0.6-0.6
		c-12.1-12.1-18.8-28.1-18.8-45.2s6.7-33.1,18.8-45.2l1.2-1.2c12.5-12.5,28.9-18.7,45.3-18.7c16.4,0,32.8,6.2,45.3,18.7l123.7,123.4
		c12.1,12.1,18.8,28.1,18.8,45.2S856,207.7,843.9,219.8z M721.5,342l-1.2,1.2c-25,24.9-65.6,24.9-90.6,0l-61.5-61.4
		c22.7-3.3,43.8-13.7,60.3-30.3l1.2-1.2c16.6-16.5,27-37.5,30.3-60.2l61.5,61.4C746.4,276.5,746.4,317,721.5,342L721.5,342z
		 M230.4,343.2c-25,24.9-65.6,24.9-90.6,0l-1.2-1.2c-12.1-12.1-18.8-28.1-18.8-45.2s6.7-33.1,18.8-45.2l61.5-61.4
		c3.3,22.7,13.8,43.7,30.3,60.2l1.2,1.2c16.5,16.5,37.5,27,60.3,30.3L230.4,343.2L230.4,343.2z M107.9,221
		c-16.5,16.5-27,37.5-30.3,60.2l-61.5-61.4C3.9,207.7-2.7,191.7-2.7,174.6s6.7-33.1,18.8-45.2L139.7,6
		c12.5-12.5,28.9-18.7,45.3-18.7S217.8-6.5,230.3,6l1.2,1.2c12.1,12.1,18.8,28.1,18.8,45.2c0,17.1-6.7,33.1-18.8,45.2l-0.6,0.6
		L107.9,221L107.9,221z M874.5,98.8L750.8-24.6c-41.9-41.8-110-41.8-151.9,0l-1.2,1.2c-20.3,20.2-31.5,47.1-31.5,75.8
		c0,28.6,11.2,55.5,31.5,75.8l0.6,0.6l0.6,0.6c12.1,12.1,18.8,28.1,18.8,45.2s-6.7,33.1-18.8,45.2l-1.2,1.2
		c-12.1,12.1-28.2,18.7-45.3,18.7c-17.1,0-33.2-6.6-45.3-18.7l-0.6-0.6l-0.6-0.6c-20.3-20.2-47.2-31.4-75.9-31.4
		c-28.7,0-55.6,11.1-75.9,31.4l-1.2,1.2c-12.1,12.1-28.2,18.7-45.3,18.7c-17.1,0-33.2-6.6-45.3-18.7l-1.2-1.2
		c-12.1-12.1-18.8-28.1-18.8-45.2c0-17.1,6.7-33.1,18.8-45.2l0.6-0.6l0.6-0.6c20.3-20.2,31.5-47.1,31.5-75.8
		c0-28.6-11.2-55.5-31.4-75.8l-1.2-1.2c-41.9-41.8-110-41.8-151.9,0L-14.6,98.8C-34.8,119.1-46,146-46,174.6
		c0,28.6,11.2,55.5,31.5,75.8l123,122.8l0.6,0.6c41.9,41.8,110,41.8,151.9,0l123.7-123.4c25-24.9,65.6-24.9,90.6,0L599,373.7
		c20.9,20.9,48.4,31.3,75.9,31.3c27.5,0,55-10.4,75.9-31.3l123.7-123.4c20.3-20.2,31.5-47.1,31.5-75.8
		C906,146,894.8,119.1,874.5,98.8L874.5,98.8z"/>
</g>
<g transform="rotate(6 -675.99 702.244)" class="st4">
	<path class="st1" d="M842,221.4l-61.6,61.4c-3.2-22-13.3-43.3-30.3-60.2L627.7,100.5l-0.6-0.6l-0.6-0.6
		c-12.1-12.1-18.8-28.1-18.8-45.2s6.7-33.1,18.8-45.2l1.2-1.2C640.2-4.8,656.6-11,673-11c16.4,0,32.8,6.2,45.3,18.7L842,131
		c12.1,12.1,18.8,28.1,18.8,45.2S854.1,209.3,842,221.4z M719.5,343.6l-1.2,1.2c-25,24.9-65.6,24.9-90.6,0l-61.5-61.4
		c22.7-3.3,43.8-13.7,60.3-30.3l1.2-1.2c16.6-16.5,27-37.5,30.3-60.2l61.5,61.4C744.5,278.1,744.5,318.7,719.5,343.6L719.5,343.6z
		 M228.4,344.8c-25,24.9-65.6,24.9-90.6,0l-1.2-1.2c-12.1-12.1-18.8-28.1-18.8-45.2s6.7-33.1,18.8-45.2l61.5-61.4
		c3.3,22.7,13.8,43.7,30.3,60.2l1.2,1.2c16.5,16.5,37.5,27,60.3,30.3L228.4,344.8L228.4,344.8z M106,222.6
		c-16.5,16.5-27,37.5-30.3,60.2l-61.5-61.4C2,209.3-4.6,193.3-4.6,176.2c0-17.1,6.7-33.1,18.8-45.2L137.8,7.6
		c12.5-12.5,28.9-18.7,45.3-18.7s32.8,6.2,45.3,18.7l1.2,1.2c12.1,12.1,18.8,28.1,18.8,45.2c0,17.1-6.7,33.1-18.8,45.2l-0.6,0.6
		L106,222.6L106,222.6z M872.6,100.5L748.9-23C707-64.8,638.9-64.8,597-23l-1.2,1.2C575.6-1.5,564.4,25.4,564.4,54
		s11.2,55.5,31.4,75.8l0.6,0.6l0.6,0.6c12.1,12.1,18.8,28.1,18.8,45.2s-6.7,33.1-18.8,45.2l-1.2,1.2c-12.1,12.1-28.2,18.7-45.3,18.7
		c-17.1,0-33.2-6.6-45.3-18.7l-0.6-0.6l-0.6-0.6c-20.3-20.2-47.2-31.4-75.9-31.4c-28.7,0-55.6,11.1-75.9,31.4l-1.2,1.2
		c-12.1,12.1-28.2,18.7-45.3,18.7c-17.1,0-33.2-6.6-45.3-18.7l-1.2-1.2c-12.1-12.1-18.8-28.1-18.8-45.2s6.7-33.1,18.8-45.2l0.6-0.6
		l0.6-0.6c20.3-20.2,31.5-47.1,31.5-75.8c0-28.6-11.2-55.5-31.4-75.8l-1.2-1.2c-41.9-41.8-110-41.8-151.9,0L-16.5,100.5
		C-36.8,120.7-48,147.6-48,176.3c0,28.6,11.2,55.5,31.5,75.8l123,122.8l0.6,0.6c41.9,41.8,110,41.8,151.9,0L382.8,252
		c25-24.9,65.6-24.9,90.6,0l123.7,123.4c20.9,20.9,48.4,31.3,75.9,31.3c27.5,0,55-10.4,75.9-31.3L872.6,252
		c20.3-20.2,31.5-47.1,31.5-75.8C904.1,147.6,892.9,120.7,872.6,100.5L872.6,100.5z"/>
</g>
<g transform="rotate(8 -381.991 599.464)" class="st5">
	<path class="st1" d="M840.1,223.1l-61.6,61.4c-3.2-22-13.3-43.3-30.3-60.2L625.8,102.2l-0.6-0.6l-0.6-0.6
		c-12.1-12.1-18.8-28.1-18.8-45.2s6.7-33.1,18.8-45.2l1.2-1.2c12.5-12.5,28.9-18.7,45.3-18.7c16.4,0,32.8,6.2,45.3,18.7l123.7,123.4
		c12.1,12.1,18.8,28.1,18.8,45.2C858.9,195,852.2,211.1,840.1,223.1z M717.7,345.3l-1.2,1.2c-25,24.9-65.6,24.9-90.6,0l-61.5-61.4
		c22.7-3.3,43.8-13.7,60.3-30.3l1.2-1.2c16.6-16.5,27-37.5,30.3-60.2l61.5,61.4C742.6,279.8,742.6,320.4,717.7,345.3L717.7,345.3z
		 M226.6,346.5c-25,24.9-65.6,24.9-90.6,0l-1.2-1.2c-12.1-12.1-18.8-28.1-18.8-45.2s6.7-33.1,18.8-45.2l61.5-61.4
		c3.3,22.7,13.8,43.7,30.3,60.2l1.2,1.2c16.5,16.5,37.5,27,60.3,30.3L226.6,346.5L226.6,346.5z M104.1,224.3
		c-16.5,16.5-27,37.5-30.3,60.2l-61.5-61.4C0.2,211.1-6.5,195-6.5,177.9c0-17.1,6.7-33.1,18.8-45.2L136,9.3
		c12.5-12.5,28.9-18.7,45.3-18.7s32.8,6.2,45.3,18.7l1.2,1.2c12.1,12.1,18.8,28.1,18.8,45.2s-6.7,33.1-18.8,45.2l-0.6,0.6
		L104.1,224.3L104.1,224.3z M870.7,102.2L747.1-21.3c-41.9-41.8-110-41.8-151.9,0L594-20c-20.3,20.2-31.5,47.1-31.5,75.8
		c0,28.6,11.2,55.5,31.5,75.8l0.6,0.6l0.6,0.6c12.1,12.1,18.8,28.1,18.8,45.2s-6.7,33.1-18.8,45.2l-1.2,1.2
		c-12.1,12.1-28.2,18.7-45.3,18.7c-17.1,0-33.2-6.6-45.3-18.7l-0.6-0.6l-0.6-0.6c-20.3-20.2-47.2-31.4-75.9-31.4
		c-28.7,0-55.6,11.1-75.9,31.4l-1.2,1.2c-12.1,12.1-28.2,18.7-45.3,18.7s-33.2-6.6-45.3-18.7l-1.2-1.2
		c-12.1-12.1-18.8-28.1-18.8-45.2s6.7-33.1,18.8-45.2l0.6-0.6l0.6-0.6c20.3-20.2,31.5-47.1,31.5-75.8c0-28.6-11.2-55.5-31.5-75.8
		l-1.2-1.2c-41.9-41.8-110-41.8-151.9,0L-18.3,102.2c-20.3,20.2-31.5,47.1-31.5,75.8c0,28.6,11.2,55.5,31.5,75.8l123,122.8l0.6,0.6
		c41.9,41.8,110,41.8,151.9,0l123.7-123.4c25-24.9,65.6-24.9,90.6,0l123.7,123.4c20.9,20.9,48.4,31.3,75.9,31.3s55-10.4,75.9-31.3
		l123.7-123.4c20.3-20.2,31.5-47.1,31.5-75.8C902.2,149.3,891,122.4,870.7,102.2L870.7,102.2z"/>
</g>
<g transform="rotate(10 -205.448 537.746)" class="st6">
	<path class="st1" d="M838.3,224.9l-61.6,61.4c-3.2-22-13.3-43.3-30.3-60.2L624,103.9l-0.6-0.6l-0.6-0.6
		C610.7,90.6,604,74.6,604,57.5c0-17.1,6.7-33.1,18.8-45.2l1.2-1.2c12.5-12.5,28.9-18.7,45.3-18.7c16.4,0,32.8,6.2,45.3,18.7
		l123.7,123.4c12.1,12.1,18.8,28.1,18.8,45.2S850.4,212.8,838.3,224.9z M715.9,347.1l-1.2,1.2c-25,24.9-65.6,24.9-90.6,0l-61.5-61.4
		c22.7-3.3,43.8-13.7,60.3-30.3l1.2-1.2c16.6-16.5,27-37.5,30.3-60.2l61.5,61.4C740.8,281.6,740.8,322.2,715.9,347.1L715.9,347.1z
		 M224.8,348.3c-25,24.9-65.6,24.9-90.6,0l-1.2-1.2c-12.1-12.1-18.8-28.1-18.8-45.2c0-17.1,6.7-33.1,18.8-45.2l61.5-61.4
		c3.3,22.7,13.8,43.7,30.3,60.2l1.2,1.2c16.5,16.5,37.5,27,60.3,30.3L224.8,348.3L224.8,348.3z M102.3,226.1
		c-16.5,16.5-27,37.5-30.3,60.2l-61.5-61.4c-12.1-12.1-18.8-28.1-18.8-45.2s6.7-33.1,18.8-45.2L134.1,11.1
		C146.6-1.4,163-7.6,179.5-7.6c16.4,0,32.8,6.2,45.3,18.7l1.2,1.2c12.1,12.1,18.8,28.1,18.8,45.2c0,17.1-6.7,33.1-18.8,45.2
		l-0.6,0.6L102.3,226.1L102.3,226.1z M868.9,103.9L745.3-19.5c-41.9-41.8-110-41.8-151.9,0l-1.2,1.2C571.9,2,560.7,28.9,560.7,57.5
		s11.2,55.5,31.4,75.8l0.6,0.6l0.6,0.6c12.1,12.1,18.8,28.1,18.8,45.2s-6.7,33.1-18.8,45.2l-1.2,1.2c-12.1,12.1-28.2,18.7-45.3,18.7
		s-33.2-6.6-45.3-18.7l-0.6-0.6l-0.6-0.6c-20.3-20.2-47.2-31.4-75.9-31.4c-28.7,0-55.6,11.1-75.9,31.4l-1.2,1.2
		c-12.1,12.1-28.2,18.7-45.3,18.7c-17.1,0-33.2-6.6-45.3-18.7l-1.2-1.2c-12.1-12.1-18.8-28.1-18.8-45.2c0-17.1,6.7-33.1,18.8-45.2
		l0.6-0.6l0.6-0.6c20.3-20.2,31.5-47.1,31.5-75.8c0-28.6-11.2-55.5-31.5-75.8l-1.2-1.2c-41.9-41.8-110-41.8-151.9,0L-20.2,103.9
		c-20.3,20.2-31.5,47.1-31.5,75.8c0,28.6,11.2,55.5,31.5,75.8l123,122.8l0.6,0.6c41.9,41.8,110,41.8,151.9,0L379,255.5
		c25-24.9,65.6-24.9,90.6,0l123.7,123.4c20.9,20.9,48.4,31.3,75.9,31.3s55-10.4,75.9-31.3l123.7-123.4
		c20.3-20.2,31.5-47.1,31.5-75.8C900.4,151.1,889.2,124.2,868.9,103.9L868.9,103.9z"/>
</g>
<g transform="rotate(12 -87.633 496.559)" class="st7">
	<path class="st1" d="M836.6,226.7L775,288.2c-3.2-22-13.3-43.3-30.3-60.2L622.3,105.8l-0.6-0.6l-0.6-0.6
		c-12.1-12.1-18.8-28.1-18.8-45.2s6.7-33.1,18.8-45.2l1.2-1.2c12.5-12.5,28.9-18.7,45.3-18.7c16.4,0,32.8,6.2,45.3,18.7l123.7,123.4
		c12.1,12.1,18.8,28.1,18.8,45.2C855.3,198.6,848.7,214.7,836.6,226.7z M714.1,348.9l-1.2,1.2c-25,24.9-65.6,24.9-90.6,0l-61.5-61.4
		c22.7-3.3,43.8-13.7,60.3-30.3l1.2-1.2c16.6-16.5,27-37.5,30.3-60.2l61.5,61.4C739.1,283.4,739.1,324,714.1,348.9L714.1,348.9z
		 M223,350.1c-25,24.9-65.6,24.9-90.6,0l-1.2-1.2c-12.1-12.1-18.8-28.1-18.8-45.2c0-17.1,6.7-33.1,18.8-45.2l61.5-61.4
		c3.3,22.7,13.8,43.7,30.3,60.2l1.2,1.2c16.5,16.5,37.5,27,60.3,30.3L223,350.1L223,350.1z M100.6,227.9
		c-16.5,16.5-27,37.5-30.3,60.2L8.7,226.7c-12.1-12.1-18.8-28.1-18.8-45.2s6.7-33.1,18.8-45.2L132.4,12.9
		c12.5-12.5,28.9-18.7,45.3-18.7c16.4,0,32.8,6.2,45.3,18.7l1.2,1.2C236.4,26.2,243,42.3,243,59.3s-6.7,33.1-18.8,45.2l-0.6,0.6
		L100.6,227.9L100.6,227.9z M867.2,105.8L743.5-17.6c-41.9-41.8-110-41.8-151.9,0l-1.2,1.2C570.1,3.8,559,30.7,559,59.3
		s11.2,55.5,31.5,75.8l0.6,0.6l0.6,0.6c12.1,12.1,18.8,28.1,18.8,45.2s-6.7,33.1-18.8,45.2l-1.2,1.2c-12.1,12.1-28.2,18.7-45.3,18.7
		s-33.2-6.6-45.3-18.7l-0.6-0.6l-0.6-0.6c-20.3-20.2-47.2-31.4-75.9-31.4c-28.7,0-55.6,11.1-75.9,31.4l-1.2,1.2
		c-12.1,12.1-28.2,18.7-45.3,18.7c-17.1,0-33.2-6.6-45.3-18.7l-1.2-1.2c-12.1-12.1-18.8-28.1-18.8-45.2s6.7-33.1,18.8-45.2l0.6-0.6
		l0.6-0.6c20.3-20.2,31.4-47.1,31.4-75.8c0-28.6-11.2-55.5-31.5-75.8l-1.2-1.2c-41.9-41.8-110-41.8-151.9,0L-21.9,105.8
		c-20.3,20.2-31.5,47.1-31.5,75.8c0,28.6,11.2,55.5,31.5,75.8l123,122.8l0.6,0.6c41.9,41.8,110,41.8,151.9,0l123.7-123.4
		c25-24.9,65.6-24.9,90.6,0l123.7,123.4c20.9,20.9,48.4,31.3,75.9,31.3s55-10.4,75.9-31.3l123.7-123.4
		c20.3-20.2,31.5-47.1,31.5-75.8C898.7,152.9,887.5,126,867.2,105.8L867.2,105.8z"/>
</g>
<g transform="rotate(14 -3.377 467.103)" class="st8">
	<path class="st1" d="M834.9,228.6L773.3,290c-3.2-22-13.3-43.3-30.3-60.2L620.6,107.7L620,107l-0.6-0.6
		c-12.1-12.1-18.8-28.1-18.8-45.2s6.7-33.1,18.8-45.2l1.2-1.2c12.5-12.5,28.9-18.7,45.3-18.7c16.4,0,32.8,6.2,45.3,18.7l123.7,123.4
		c12.1,12.1,18.8,28.1,18.8,45.2S847,216.5,834.9,228.6z M712.4,350.8l-1.2,1.2c-25,24.9-65.6,24.9-90.6,0l-61.5-61.4
		c22.7-3.3,43.7-13.7,60.3-30.3l1.2-1.2c16.6-16.5,27-37.5,30.3-60.2l61.5,61.4C737.4,285.3,737.4,325.9,712.4,350.8L712.4,350.8z
		 M221.4,352c-25,24.9-65.6,24.9-90.6,0l-1.2-1.2c-12.1-12.1-18.8-28.1-18.8-45.2s6.7-33.1,18.8-45.2L191,199
		c3.3,22.7,13.8,43.7,30.3,60.2l1.2,1.2c16.5,16.5,37.5,27,60.3,30.3L221.4,352L221.4,352z M98.9,229.8
		c-16.5,16.5-27,37.5-30.3,60.2L7,228.6c-12.1-12.1-18.8-28.1-18.8-45.2c0-17.1,6.7-33.1,18.8-45.2L130.7,14.8
		C143.2,2.3,159.6-3.9,176-3.9s32.8,6.2,45.3,18.7l1.2,1.2c12.1,12.1,18.8,28.1,18.8,45.2s-6.7,33.1-18.8,45.2L222,107L98.9,229.8
		L98.9,229.8z M865.5,107.7L741.8-15.8c-41.9-41.8-110-41.8-151.9,0l-1.2,1.2c-20.3,20.2-31.5,47.1-31.5,75.8
		c0,28.6,11.2,55.5,31.5,75.8l0.6,0.6l0.6,0.6c12.1,12.1,18.8,28.1,18.8,45.2c0,17.1-6.7,33.1-18.8,45.2l-1.2,1.2
		c-12.1,12.1-28.2,18.7-45.3,18.7c-17.1,0-33.2-6.6-45.3-18.7l-0.6-0.6l-0.6-0.6c-20.3-20.2-47.2-31.4-75.9-31.4
		c-28.7,0-55.6,11.1-75.9,31.4l-1.2,1.2c-12.1,12.1-28.2,18.7-45.3,18.7s-33.2-6.6-45.3-18.7l-1.2-1.2
		c-12.1-12.1-18.8-28.1-18.8-45.2s6.7-33.1,18.8-45.2l0.6-0.6l0.6-0.6c20.3-20.2,31.5-47.1,31.5-75.8c0-28.6-11.2-55.5-31.5-75.8
		l-1.2-1.2c-41.9-41.8-110-41.8-151.9,0L-23.6,107.7C-43.9,127.9-55,154.8-55,183.4c0,28.6,11.2,55.5,31.5,75.8L99.5,382l0.6,0.6
		c41.9,41.8,110,41.8,151.9,0l123.7-123.4c25-24.9,65.6-24.9,90.6,0L590,382.6c20.9,20.9,48.4,31.3,75.9,31.3s55-10.4,75.9-31.3
		l123.7-123.4c20.3-20.2,31.5-47.1,31.5-75.8C897,154.8,885.8,127.9,865.5,107.7L865.5,107.7z"/>
</g>
<g transform="rotate(16 59.905 444.98)">
	<path class="st1" d="M833.3,230.6L771.7,292c-3.2-22-13.3-43.3-30.3-60.2L619,109.6l-0.6-0.6l-0.6-0.6
		C605.7,96.3,599,80.2,599,63.2c0-17,6.7-33.2,18.8-45.2l1.2-1.2C631.5,4.3,647.9-2,664.3-2c16.4,0,32.8,6.2,45.3,18.7l123.7,123.4
		c12.1,12.1,18.8,28.1,18.8,45.2S845.4,218.5,833.3,230.6z M710.8,352.8l-1.2,1.2c-25,24.9-65.6,24.9-90.6,0l-61.5-61.4
		c22.7-3.3,43.7-13.7,60.3-30.3l1.2-1.2c16.6-16.5,27-37.5,30.3-60.2l61.5,61.4C735.8,287.3,735.8,327.8,710.8,352.8L710.8,352.8z
		 M219.7,354c-25,24.9-65.6,24.9-90.6,0l-1.2-1.2c-12.1-12.1-18.8-28.1-18.8-45.2c0-17.1,6.7-33.1,18.8-45.2l61.5-61.4
		c3.3,22.7,13.8,43.7,30.3,60.2l1.2,1.2c16.5,16.5,37.5,27,60.3,30.3L219.7,354L219.7,354z M97.3,231.8
		c-16.5,16.5-27,37.5-30.3,60.2L5.4,230.6c-12.1-12.1-18.8-28.1-18.8-45.2s6.7-33.1,18.8-45.2L129.1,16.7C141.6,4.3,158-2,174.4-2
		c16.4,0,32.8,6.2,45.3,18.7L221,18c12.1,12.1,18.8,28.1,18.8,45.2c0,17.1-6.7,33.1-18.8,45.2l-0.6,0.6L97.3,231.8L97.3,231.8z
		 M863.9,109.6L740.2-13.8c-41.9-41.8-110-41.8-151.9,0l-1.2,1.2c-20.3,20.2-31.5,47.1-31.5,75.8c0,28.6,11.2,55.5,31.5,75.8
		l0.6,0.6l0.6,0.6c12.1,12.1,18.8,28.1,18.8,45.2s-6.7,33.1-18.8,45.2l-1.2,1.2c-12.1,12.1-28.2,18.7-45.3,18.7
		c-17.1,0-33.2-6.6-45.3-18.7l-0.6-0.6l-0.6-0.6c-20.3-20.2-47.2-31.4-75.9-31.4c-28.7,0-55.6,11.1-75.9,31.4l-1.2,1.2
		c-12.1,12.1-28.2,18.7-45.3,18.7c-17.1,0-33.2-6.6-45.3-18.7l-1.2-1.2c-12.1-12.1-18.8-28.1-18.8-45.2c0-17.1,6.7-33.1,18.8-45.2
		l0.6-0.6l0.6-0.6c20.3-20.2,31.5-47.1,31.5-75.8c0-28.6-11.2-55.5-31.4-75.8l-1.2-1.2c-41.9-41.8-110-41.8-151.9,0L-25.2,109.6
		c-20.3,20.2-31.5,47.1-31.5,75.8c0,28.6,11.2,55.5,31.5,75.8L97.8,384l0.6,0.6c41.9,41.8,110,41.8,151.9,0L374,261.2
		c25-24.9,65.6-24.9,90.6,0l123.7,123.4c20.9,20.9,48.4,31.3,75.9,31.3c27.5,0,55-10.4,75.9-31.3l123.7-123.4
		c20.3-20.2,31.5-47.1,31.5-75.8C895.4,156.7,884.2,129.8,863.9,109.6L863.9,109.6z"/>
</g>
</svg>
